<svg xmlns="http://www.w3.org/2000/svg" width="512" height="512" xml:space="preserve"><g transform="matrix(.3841 .95066 1.12659 -.45517 284.081 360.272)"><linearGradient id="a" gradientUnits="objectBoundingBox" x1="1" y1=".057" x2=".5" y2=".5"><stop offset="0%" style="stop-color:#007b55;stop-opacity:1"/><stop offset="100%" style="stop-color:#00ab55;stop-opacity:1"/></linearGradient><path style="stroke:none;stroke-width:1;stroke-dasharray:none;stroke-linecap:butt;stroke-dashoffset:0;stroke-linejoin:miter;stroke-miterlimit:4;fill:url(#a);fill-rule:evenodd;opacity:1" vector-effect="non-scaling-stroke" d="M.807-86.633c44.288 22.889 46.308 23.934 46.4 23.98.013.009.642.333 44.793 23.152C65.928 9.04 49.307 37.765 42.132 46.68c-10.76 13.37-22.496 23.493-36.93 29.333-30.346 14.262-68.07 14.93-97.202-2.704z"/></g><g transform="rotate(43 -160.783 401.04)"><linearGradient id="b" gradientUnits="objectBoundingBox" x1=".5" y1="0" x2=".5" y2="1"><stop offset="0%" style="stop-color:#5be584;stop-opacity:1"/><stop offset="100%" style="stop-color:#00ab55;stop-opacity:1"/></linearGradient><path style="stroke:none;stroke-width:1;stroke-dasharray:none;stroke-linecap:butt;stroke-dashoffset:0;stroke-linejoin:miter;stroke-miterlimit:4;fill:url(#b);fill-rule:evenodd;opacity:1" vector-effect="non-scaling-stroke" transform="translate(-256 -128)" d="M430.31 101.726c-46.27-80.956-94.1-157.228-149.043-45.344C273.751 70.766 268.272 98.72 256 98.72v-.142c-12.272 0-17.75-27.953-25.265-42.337C175.79-55.644 127.96 20.628 81.69 101.584c-3.483 6.106-6.828 11.932-9.69 16.996 106.038-67.127 97.11 135.667 184 137.278V256c86.891-1.611 77.962-204.405 184-137.28-2.86-5.062-6.206-10.888-9.69-16.994"/></g></svg>